<?xml version="1.0" encoding="UTF-8"?>
<svg xmlns="http://www.w3.org/2000/svg" xmlns:xlink="http://www.w3.org/1999/xlink" width="48px" height="48px" viewBox="0 0 48 48" version="1.1">
<g id="surface1">
<path style=" stroke:none;fill-rule:nonzero;fill:rgb(100%,0%,0.784314%);fill-opacity:1;" d="M 24 48 C 37.253906 48 48 37.253906 48 24 C 48 10.746094 37.253906 0 24 0 C 10.746094 0 0 10.746094 0 24 C 0 37.253906 10.746094 48 24 48 Z M 24 48 "/>
<path style=" stroke:none;fill-rule:nonzero;fill:rgb(100%,100%,100%);fill-opacity:1;" d="M 35.675781 20.460938 C 34.949219 19.710938 33.917969 19.300781 32.65625 19.300781 C 31.09375 19.300781 29.890625 19.9375 29.195312 21.128906 L 29.195312 15.21875 L 25.566406 15.21875 L 25.566406 31.421875 L 29.195312 31.421875 L 29.195312 25.726562 C 29.195312 24.398438 29.46875 23.546875 29.878906 23.046875 C 30.273438 22.546875 30.832031 22.355469 31.433594 22.355469 C 31.964844 22.355469 32.386719 22.523438 32.679688 22.832031 C 32.976562 23.148438 33.144531 23.636719 33.144531 24.316406 L 33.144531 31.410156 L 36.777344 31.410156 L 36.777344 23.601562 C 36.777344 22.273438 36.390625 21.195312 35.675781 20.460938 Z M 35.675781 20.460938 "/>
<path style=" stroke:none;fill-rule:nonzero;fill:rgb(100%,100%,100%);fill-opacity:1;" d="M 19.4375 19.300781 C 17.871094 19.300781 16.667969 19.9375 15.976562 21.128906 L 15.976562 15.21875 L 12.347656 15.21875 L 12.347656 31.421875 L 15.976562 31.421875 L 15.976562 25.726562 C 15.976562 24.398438 16.25 23.546875 16.65625 23.046875 C 17.054688 22.546875 17.613281 22.355469 18.210938 22.355469 C 18.746094 22.355469 19.164062 22.523438 19.460938 22.832031 C 19.757812 23.148438 19.925781 23.636719 19.925781 24.316406 L 19.925781 31.410156 L 23.558594 31.410156 L 23.558594 23.601562 C 23.558594 22.273438 23.171875 21.195312 22.445312 20.449219 C 21.730469 19.699219 20.699219 19.300781 19.4375 19.300781 Z M 19.4375 19.300781 "/>
</g>
</svg>
