<svg width="767" height="767" viewBox="0 0 767 767" fill="none" xmlns="http://www.w3.org/2000/svg">
<g clip-path="url(#clip0_2991_17281)">
<path fill-rule="evenodd" clip-rule="evenodd" d="M767 0H0V767H767V0ZM663.512 573.028C663.773 574.608 664.033 578.003 664.08 580.549L664.246 580.69C664.293 584.887 664.175 585.665 662.707 588.352C660.552 592.407 658.776 593.02 656.005 590.945C654.892 590.12 654.063 589.06 654.063 588.659C654.063 588.211 653.4 587.716 652.595 587.551C651.719 587.338 651.222 586.82 651.222 586.065C651.222 584.698 646.983 580.619 645.609 580.619C645.017 580.619 644.331 580.289 643.881 579.794C643.431 579.228 642.199 578.969 640.163 578.969C637.937 578.969 637.013 578.71 636.8 578.144C636.634 577.72 635.924 577.319 635.213 577.319C634.503 577.319 633.485 576.8 632.869 576.14C632.324 575.503 631.093 574.537 630.122 574.018C628.275 573.028 623.586 572.698 623.065 573.523C622.852 573.83 622.142 573.782 621.431 573.382C620.602 572.934 618.66 572.769 615.961 572.981C612.788 573.169 611.722 573.075 611.509 572.462C611.343 572.061 610.893 571.708 610.538 571.708C610.135 571.708 609.378 571.166 608.809 570.6C607.791 569.492 605.944 569.492 605.139 570.553C605.05 570.729 604.38 571.155 603.534 571.693C603.247 571.876 602.94 572.071 602.628 572.274C601.397 573.028 600.189 573.806 600.024 574.16C599.81 574.443 598.792 574.655 597.774 574.608C596.377 574.56 595.477 574.136 594.34 572.722C593.511 571.731 592.848 570.458 592.848 569.94C592.848 568.454 591.735 568.148 590.504 569.28C589.714 569.94 588.83 569.452 587.852 567.818C587.141 566.733 581.837 566.073 578.877 566.686C577.124 567.111 576.177 567.087 575.656 566.592C575.04 566.12 574.425 566.12 573.193 566.639C572.128 567.087 570.494 567.205 568.812 566.993C564.479 566.38 564.171 566.215 564.171 564.447C564.171 563.551 563.65 561.924 562.939 560.745C561.85 558.906 561.661 558.812 561.045 559.731C560.287 560.745 558.795 561.665 556.356 562.773C554.367 563.645 552.33 562.631 552.33 560.839C552.33 558.741 550.057 557.775 547.902 559.048C545.865 560.227 544.634 560.227 543.971 559.048C543.687 558.529 542.763 558.081 541.887 558.034C540.656 557.987 540.229 557.727 540.087 556.761C539.85 555.228 539.685 555.229 537.648 556.902C536.725 557.704 535.588 558.317 535.185 558.317C534.759 558.317 534.357 558.553 534.357 558.812C534.357 559.449 531.799 560.58 530.26 560.58C529.502 560.58 528.413 561.075 527.702 561.641C526.684 562.513 526.21 562.655 524.884 562.207C524.008 561.9 523.155 561.287 522.99 560.792C522.587 559.614 519.414 559.826 517.78 561.146C516.998 561.735 515.459 562.396 514.346 562.608C512.57 562.961 512.167 562.796 511.031 561.382C510.273 560.462 509.705 559.401 509.705 559.048C509.705 558.199 507.384 558.105 506.579 558.906C506.176 559.307 505.276 559.213 503.784 558.6C501.014 557.397 499.64 556.219 499.64 554.946C499.64 552.753 497.462 553.814 494.904 557.374C494.075 558.529 493.057 559.496 492.702 559.496C491.778 559.59 489.481 561.476 489.481 562.23C489.481 562.584 489.173 562.843 488.723 562.843C488.273 562.843 487.776 563.173 487.61 563.669C487.397 564.187 486.545 564.494 485.313 564.494C483.419 564.494 483.111 564.093 483.277 562.419C483.395 561.405 481.24 559.236 480.577 559.684C480.317 559.849 479.701 559.731 479.298 559.284C478.896 558.883 478.138 558.34 477.617 558.175C477.143 558.01 475.983 556.737 475.06 555.323C473.639 553.036 471.484 551.834 471.484 553.295C471.484 553.555 470.655 553.861 469.542 553.861C468.429 553.861 467.126 554.215 466.629 554.663C466.061 555.228 464.687 555.535 462.177 555.535C458.72 555.535 455.239 556.69 455.239 557.869C455.239 558.529 451.876 560.061 451.308 559.708C450.952 559.472 450.739 558.741 450.739 557.987C450.739 557.28 450.479 556.619 450.218 556.619C449.863 556.619 449.65 555.959 449.65 555.252C449.65 553.767 448.111 553.295 446.998 554.427C446.548 554.851 446.05 554.851 445.222 554.285C444.085 553.578 443.99 553.177 443.682 547.684C443.493 544.077 443.469 543.771 442.972 543.771C442.711 543.771 441.883 544.431 441.125 545.185C439.609 546.671 438.378 546.977 438.378 545.751L437.928 546.411C437.217 546.411 436.744 546.671 436.389 547.024C436.104 547.166 435.844 547.284 435.584 547.425C435.441 547.378 435.323 547.331 435.228 547.378C434.731 547.849 434.115 548.25 433.855 548.25C432.671 548.25 429 551.433 428.077 553.225C426.845 555.724 424.335 557.704 421.943 558.105C420.262 558.411 420.096 558.223 419.386 556.337C418.77 554.639 418.533 554.451 417.965 555.158C417.302 555.983 414.389 556.619 410.505 556.784C408.895 556.879 407.711 557.327 406.74 558.199C405.58 559.26 404.964 559.425 403.733 559.118C402.904 558.883 400.512 558.623 398.523 558.623C394.544 558.553 393.195 558.058 393.668 556.832C393.834 556.407 393.834 555.299 393.668 554.38C393.242 552.164 392.011 552.258 389.216 554.592C384.812 558.388 381.97 559.166 380.076 557.28C379.247 556.454 378.441 556.101 377.873 556.36C377.305 556.596 376.547 556.855 376.026 556.855C375.6 556.902 374.582 557.515 373.871 558.175C371.266 560.557 367.998 560.462 367.075 558.01C366.53 556.643 366.27 556.596 363.049 556.69C361.107 556.737 358.952 557.162 358.242 557.61C355.992 558.977 354.524 558.364 353.861 555.676C352.985 552.069 352.274 551.716 350.238 553.79C348.864 555.205 347.988 555.559 346.212 555.559C344.057 555.559 340.694 554.097 340.694 553.177C340.694 552.942 340.339 552.777 339.818 552.777C339.368 552.777 339.013 552.989 339.013 553.295C339.013 553.555 337.995 554.003 336.763 554.215C335.532 554.427 334.513 554.733 334.513 555.087C334.513 555.37 333.069 555.582 331.293 555.535C330.332 555.535 329.156 555.521 328.077 555.508C327.161 555.498 326.315 555.488 325.728 555.488C324.047 555.488 323.218 555.747 322.815 556.454C322.318 557.327 322.057 557.327 318.126 556.407C315.829 555.841 312.111 555.488 309.909 555.488C306.949 555.535 305.268 555.276 304.131 554.568C302.852 553.814 302.355 553.79 301.834 554.309C301.479 554.663 300.602 554.969 299.939 554.969C299.276 554.969 297.761 555.346 296.624 555.841C294.469 556.761 293.498 556.761 282.676 555.747C279.811 555.488 278.627 555.629 277.916 556.242C276.33 557.61 275.24 557.704 273.464 556.643C270.978 555.158 264.134 555.511 254.069 558.058C253.051 558.317 252.53 558.246 252.53 557.798C252.53 557.397 251.772 557.209 250.399 557.35C248.623 557.468 248.173 557.775 247.344 559.543C246.776 560.745 246.113 561.665 245.805 561.665C244.692 561.665 243.555 560.981 243.555 560.179C243.555 559.684 243.247 559.472 242.726 559.684C242.3 559.826 241.755 559.731 241.542 559.378C241.329 559.024 240.406 558.953 239.293 559.166C237.801 559.472 237.398 559.307 237.398 558.647C237.398 557.633 237.256 557.633 234.296 558.388C231.691 559.095 229.868 559.307 223.379 559.755C218.88 560.014 218.619 560.109 216.938 561.948C215.257 563.834 213.836 564.399 213.007 563.574C212.604 563.15 206.637 562.655 202.493 562.702C200.195 562.749 199.746 562.584 199.438 561.523C199.272 560.91 198.751 559.496 198.254 558.482C197.804 557.468 197.188 554.568 196.928 552.069C196.312 546.223 195.815 543.841 195.199 543.841C194.867 543.841 194.702 542.946 194.702 541.696C194.702 540.447 194.394 539.362 194.038 539.268C193.541 539.103 193.281 537.688 193.233 535.449C193.091 529.861 192.168 524.84 191.149 524.274C190.534 523.873 190.321 522.694 190.321 519.7C190.321 516.706 189.918 514.678 188.781 511.779C187.692 508.879 187.384 507.205 187.55 505.366C187.668 503.952 187.503 502.207 187.053 501.099C186.555 500.085 186.247 497.916 186.247 496.384C186.247 494.851 186.011 493.696 185.75 493.838C184.874 494.356 183.643 480.895 184.471 479.716C184.756 479.339 187.313 478.49 190.178 477.924C193.091 477.358 196.146 476.486 197.07 476.038C197.993 475.614 200.716 475.024 203.156 474.859C205.618 474.694 207.75 474.246 207.915 473.987C208.034 473.751 208.626 473.539 209.147 473.539C209.668 473.539 210.805 472.879 211.61 472.125C212.438 471.37 213.409 470.757 213.765 470.757C214.736 470.757 222.242 469.013 223.521 468.517C226.315 467.386 228.163 466.985 229.797 467.244C231.123 467.457 231.738 467.244 232.401 466.278C232.875 465.618 233.846 465.005 234.556 464.91C237.611 464.462 240.927 463.496 241.495 462.789C242.418 461.681 244.692 460.502 246.847 460.054C247.912 459.771 250.73 458.899 253.075 457.979C255.325 457.06 258.379 455.999 259.706 455.645C261.032 455.292 262.76 454.372 263.471 453.571C264.489 452.533 265.01 452.297 265.72 452.745C267.26 453.594 270.48 452.345 272.919 449.893C273.677 449.138 274.151 449.044 274.553 449.445C275.43 450.317 275.832 450.223 277.419 448.643C278.177 447.889 279.455 447.229 280.213 447.229C280.995 447.229 281.658 446.969 281.8 446.616C281.942 446.144 282.392 446.191 283.221 446.757C284.973 447.771 288.857 446.71 293.238 443.905C295.037 442.655 297.69 441.311 299.111 440.863C300.484 440.345 301.976 439.684 302.426 439.237C302.971 438.836 304.462 438.034 305.836 437.516C310.454 435.582 313.509 434.074 315.498 432.541C316.563 431.692 317.605 431.079 317.795 431.079C317.984 431.079 319.026 430.419 320.139 429.665C321.821 428.58 322.697 428.345 325.657 428.486C327.575 428.604 329.73 428.887 330.393 429.099C331.317 429.358 331.79 429.123 332.548 427.991C333.069 427.189 334.04 426.576 334.703 426.529C335.508 426.529 336.171 425.916 336.739 424.738C337.45 423.158 337.9 422.946 340.055 422.852C341.428 422.804 342.802 422.451 343.11 422.144C343.417 421.838 344.246 421.578 344.957 421.578C345.572 421.578 346.757 421.06 347.562 420.447C348.319 419.834 349.385 419.339 349.906 419.339C350.38 419.339 350.735 418.844 350.735 418.325C350.735 416.91 351.848 415.944 353.482 415.944C354.263 415.944 356.182 415.449 357.058 413.563C357.129 413.421 357.176 413.256 357.223 413.162C357.321 412.677 357.474 412.025 357.675 411.169C357.768 410.777 357.87 410.342 357.981 409.861C358.092 409.397 357.731 409.522 357.272 409.681C356.846 409.828 356.336 410.005 356.039 409.767C355.376 409.201 355.068 409.343 354.358 410.262C353.387 411.7 351.398 411.842 345.88 410.875C343.015 410.333 342.21 410.38 341.594 411.04C341.12 411.488 338.563 412.29 335.816 412.808L335.573 412.859C332.881 413.418 329.419 414.138 327.741 414.435C326.059 414.741 324.52 415.307 324.26 415.614C324.047 415.967 323.431 415.92 322.46 415.52C321.631 415.072 320.352 414.812 319.642 414.812C318.837 414.812 318.221 414.553 318.221 414.294C318.221 413.94 317.866 413.728 317.392 413.728C316.919 413.728 316.563 413.916 316.563 414.176C316.563 414.789 313.745 415.85 310.785 416.25C309.317 416.463 308.133 416.84 308.133 417.123C308.133 417.406 307.73 417.618 307.209 417.618C306.688 417.618 305.789 418.042 305.268 418.537C304.51 419.244 303.184 419.457 300.318 419.457C298.14 419.409 296.34 419.645 296.34 419.905C296.34 420.918 293.995 420.447 293.688 419.386C293.143 417.17 290.23 417.453 287.317 419.905C285.541 421.39 285.139 421.484 282.273 421.178C279.976 420.918 278.698 421.083 277.371 421.743C275.051 422.993 273.014 422.899 271.641 421.578C270.315 420.258 269.723 420.164 268.894 421.178C268.515 421.673 267.26 422.144 266.123 422.286C265.969 422.311 265.794 422.339 265.602 422.371C264.345 422.577 262.359 422.903 260.819 423.087C259.019 423.347 257.29 423.865 256.935 424.219C256.532 424.62 255.419 424.879 254.543 424.879C253.572 424.95 252.341 425.303 251.725 425.751C251.133 426.223 250.304 426.576 249.949 426.576C248.765 426.576 241.874 429.924 241.874 430.49C241.874 430.749 240.24 431.056 238.203 431.056H234.533V428.769C234.533 427.449 234.13 425.846 233.42 425.02C232.804 424.101 232.141 421.767 231.786 419.315C231.525 417.028 230.957 415.048 230.649 414.907C230.341 414.812 230.033 414.129 230.033 413.327C230.033 412.596 229.678 411.582 229.228 411.134C228.755 410.71 228.399 409.743 228.399 408.989C228.399 406.938 227.713 404.25 227.263 404.557C226.813 404.816 225.984 401.657 225.889 399.229C225.842 398.521 225.534 397.791 225.131 397.696C224.729 397.555 224.468 396.635 224.468 395.669C224.468 394.702 224.09 392.816 223.64 391.402C222.148 386.687 221.082 382.914 221.082 382.113C221.082 381.712 220.845 381.311 220.585 381.311C220.253 381.311 219.638 379.472 219.117 377.186C218.619 374.852 217.909 372.824 217.648 372.659C217.388 372.494 217.175 371.905 217.127 371.386C217.127 370.891 216.772 369.783 216.322 368.958C215.92 368.109 215.138 365.61 214.641 363.37C214.12 361.131 213.409 358.985 213.007 358.537C211.941 357.217 210.828 352.785 210.923 350.144C211.018 346.726 212.296 345.712 215.967 346.066C218.43 346.278 218.998 346.089 221.129 344.604C222.455 343.638 223.971 342.812 224.539 342.812C225.06 342.812 225.558 342.6 225.558 342.294C225.558 341.987 226.079 341.728 226.789 341.728C227.405 341.728 228.731 341.162 229.702 340.408C230.673 339.748 232.449 338.946 233.633 338.781C234.817 338.616 235.977 338.215 236.19 337.909C236.356 337.649 238.274 336.494 240.429 335.315C242.584 334.184 244.739 332.911 245.189 332.51C245.639 332.109 246.752 331.614 247.581 331.402C248.457 331.237 249.262 330.789 249.475 330.529C249.641 330.247 250.446 330.034 251.275 330.034C253.217 330.034 258.119 328.408 258.119 327.795C258.119 327.559 258.948 327.347 259.966 327.394C262.168 327.441 264.821 325.932 265.271 324.4C265.413 323.787 266.076 323.197 266.739 322.985C267.354 322.75 268.681 322.019 269.652 321.264C270.622 320.557 271.901 319.944 272.517 319.944C273.085 319.944 274.104 319.59 274.672 319.142C275.288 318.671 276.756 318.317 277.94 318.317C280.45 318.27 283.457 316.997 285.186 315.158C286.299 314.003 287.01 313.838 290.183 313.838C292.953 313.838 294.114 313.579 294.682 312.871C295.108 312.4 296.837 310.985 298.519 309.759C300.247 308.533 301.644 307.26 301.787 307.001C301.881 306.765 302.236 306.6 302.497 306.6C302.805 306.6 304.628 305.799 306.57 304.926C311.685 302.522 317.297 300.447 318.624 300.447C319.239 300.447 319.95 300.235 320.163 299.928C320.613 299.174 323.644 299.174 324.047 299.928C324.354 300.423 326.462 299.575 327.172 298.655C327.315 298.49 328.948 297.83 330.796 297.17C332.69 296.51 334.229 295.708 334.371 295.402C334.513 295.048 335.248 294.223 336.053 293.422C336.171 293.318 336.363 293.196 336.572 293.065C337.076 292.747 337.672 292.371 337.521 292.054L347.727 287.74C348.296 287.74 348.935 287.386 349.101 286.938C349.29 286.49 349.764 286.137 350.119 286.137C350.474 286.137 351.043 285.807 351.445 285.311C351.801 284.911 352.606 284.557 353.127 284.557C353.695 284.557 354.311 284.911 354.453 285.311C354.619 285.783 356.395 286.632 355.945 286.137C354.619 284.604 354.216 283.732 354.311 283.284C352.085 283.166 349.385 283.166 347.585 283.331C347.057 283.365 346.603 283.563 346.234 283.724C345.826 283.903 345.522 284.036 345.336 283.85C345.148 283.688 345.218 283.473 345.281 283.282C345.336 283.112 345.386 282.961 345.241 282.883C344.98 282.742 343.844 283.095 342.731 283.708C342.564 283.787 342.398 283.92 342.243 284.044C341.98 284.255 341.752 284.438 341.618 284.274C341.558 284.168 341.606 284.038 341.663 283.884C341.719 283.731 341.783 283.555 341.76 283.355C341.547 281.61 337.924 281.469 335.721 283.095C335.232 283.428 334.857 283.815 334.52 284.162C334.189 284.503 333.895 284.806 333.566 284.981C333.267 285.145 332.835 285.121 332.336 285.093C332.046 285.076 331.734 285.058 331.411 285.076C329.54 285.146 327.291 285.382 326.415 285.642C325.349 285.948 324.686 285.854 324.378 285.288C324.118 284.887 322.91 284.628 321.371 284.722C319.334 284.816 318.766 284.581 318.505 283.755C318.032 282.294 313.438 280.596 312.372 281.422C311.401 282.223 307.872 281.681 305.978 280.455C305.315 280.031 304.202 279.771 303.539 279.936C302.071 280.29 300.792 279.889 300.792 278.923C300.792 277.791 295.985 276.376 294.303 276.989C293.238 277.39 292.385 277.296 291.201 276.683C290.278 276.211 289.307 275.999 288.999 276.164C288.738 276.306 288.17 275.905 287.673 275.245C287.01 274.278 286.465 274.16 284.926 274.42C283.244 274.726 282.865 274.561 281.752 273.099C281.089 272.18 280.166 271.425 279.716 271.425C277.774 271.425 275.524 269.704 275.524 268.337C275.524 267.182 275.217 266.923 274.104 266.923C273.298 266.923 272.683 266.616 272.683 266.262C272.683 265.885 271.664 264.471 270.433 263.15C269.202 261.83 268.183 260.369 268.183 259.85C268.183 259.378 267.875 258.718 267.378 258.365C266.928 258.035 266.265 255.818 265.91 253.319C265.555 250.868 265.057 248.038 264.797 247.166C264.536 246.247 264.134 243.866 263.968 241.838C263.755 239.811 263.305 237.783 263.092 237.264C262.831 236.769 262.476 235.355 262.334 234.223C262.239 233.021 262.003 231.724 261.837 231.229C261.718 230.805 261.268 227.009 260.913 222.836C260.203 215.103 258.427 204.73 257.551 203.622C257.266 203.316 256.911 201.029 256.745 198.6C256.532 196.149 256.082 193.98 255.774 193.815C255.159 193.461 255.419 182.38 256.035 181.72C256.201 181.532 256.343 180.919 256.343 180.306C256.343 178.679 258.45 174.978 259.563 174.671C262.074 174.011 263.045 175.473 263.352 180.565C263.423 181.744 263.66 182.852 263.873 183.017C264.063 183.182 264.229 184.196 264.229 185.21C264.229 186.223 264.418 187.19 264.679 187.331C264.892 187.52 265.2 188.887 265.2 190.42C265.247 191.952 265.555 193.72 265.863 194.333C266.17 194.899 266.478 196.172 266.478 197.139C266.478 198.2 266.786 199.048 267.307 199.213C267.804 199.378 268.16 199.921 268.065 200.439C267.899 202.679 268.207 203.646 269.486 204.447C270.244 204.919 271.996 206.333 273.369 207.653C274.838 208.974 276.685 210.223 277.656 210.388C278.579 210.577 279.763 211.19 280.261 211.756C280.829 212.369 281.634 212.817 282.155 212.817C282.629 212.817 283.386 213.076 283.694 213.477C284.31 214.09 286.962 215.151 292.527 217.084C294.114 217.579 295.795 218.239 296.316 218.498C296.884 218.781 298.092 218.993 299.016 218.993C300.508 218.993 302.71 219.842 303.468 220.714C303.681 220.879 305.552 221.28 307.707 221.634C316.611 223.072 320.423 223.874 321.039 224.486C321.371 224.84 322.223 225.099 322.839 225.099C323.502 225.099 324.307 225.406 324.615 225.712C324.923 225.972 327.386 226.325 330.038 226.467C332.761 226.632 335.2 226.915 335.508 227.08C335.769 227.245 337.095 227.386 338.421 227.386C343.631 227.386 350.167 227.928 352.25 228.447C353.577 228.801 354.974 228.848 355.779 228.541C356.489 228.329 358.621 228.282 360.515 228.494C362.315 228.706 365.677 228.919 367.88 229.013C370.129 229.013 372.616 229.272 373.445 229.579C374.534 230.027 375.434 229.98 376.618 229.532C377.944 228.989 378.299 229.037 378.868 229.697C379.886 230.923 387.085 231.583 392.39 230.875C394.071 230.687 395.61 230.781 396.368 231.182C397.339 231.748 398.476 231.701 401.578 231.04C405.698 230.192 416.118 230.38 416.686 231.253C416.805 231.559 418.107 231.771 419.504 231.771C420.901 231.771 422.441 232.007 422.938 232.266C423.577 232.573 424.974 232.455 426.703 231.96C431.605 230.545 433.192 230.451 436.294 231.512C438.686 232.314 439.609 232.408 440.675 231.913C442.356 231.111 446.642 231.63 447.921 232.738C448.679 233.351 449.247 233.398 450.479 232.997C451.45 232.691 452.468 232.644 452.989 232.95C453.581 233.209 454.505 233.209 455.381 232.856C456.21 232.573 457.938 232.314 459.217 232.408C460.496 232.455 462.651 232.314 463.977 232.054C466.203 231.677 466.416 231.748 466.771 232.809C466.984 233.87 467.292 233.964 469.068 233.61C470.181 233.445 471.578 232.927 472.076 232.431C472.62 231.984 473.402 231.771 473.852 231.936C474.302 232.054 475.178 231.842 475.794 231.441C477.191 230.428 489.173 230.215 490.097 231.088C490.807 231.818 494.028 231.913 495.401 231.253L498.267 229.838C499.332 229.367 501.274 228.966 502.6 228.966C503.927 228.966 505.726 228.612 506.484 228.259C507.502 227.811 508.118 227.811 508.379 228.164C509.089 229.178 510.557 229.39 513.02 228.824C514.393 228.518 517.046 228.211 518.94 228.117C520.811 228.023 523.179 227.551 524.245 227.056C525.31 226.608 526.897 226.207 527.821 226.302C529.312 226.349 529.573 226.655 529.976 228.942C530.189 230.31 530.283 232.007 530.141 232.809C529.999 233.563 530.141 235.591 530.449 237.217C530.757 238.891 531.112 241.649 531.254 243.418C531.515 247.897 532.486 255.559 533.196 259.072C533.504 260.746 533.622 262.938 533.457 263.905C533.22 265.084 533.457 265.932 534.025 266.545C534.641 267.158 534.996 268.714 535.138 271.213C535.233 273.264 535.351 274.985 535.398 274.985C535.612 274.985 536.938 286.325 537.553 293.091C537.814 295.685 538.335 298.702 538.69 299.81C538.998 300.824 539.353 304.431 539.353 307.732C539.353 312.706 539.235 313.767 538.477 313.767C538.051 313.767 537.648 313.956 537.648 314.262C537.648 315.512 531.065 317.139 530.354 316.03C530.141 315.677 528.815 315.323 527.489 315.323C526.163 315.323 524.529 315.064 523.961 314.757C523.203 314.404 522.8 314.451 522.492 314.899C522.137 315.37 521.214 315.512 519.224 315.205C517.496 315.017 516.264 315.064 516.004 315.418C515.838 315.771 515.128 315.983 514.417 315.983C513.801 315.983 512.688 316.337 512.073 316.785C511.481 317.233 509.894 317.846 508.663 318.247C506.674 318.812 506.058 318.789 504.282 317.987C502.6 317.186 501.937 317.091 500.801 317.586C500.019 317.987 498.74 318.247 497.935 318.247C496.609 318.247 494.241 320.109 493.744 321.594C493.649 321.948 491.66 322.349 489.315 322.561C486.734 322.773 484.84 323.221 484.271 323.74C483.514 324.471 483.395 324.471 483.253 323.645C483.04 322.443 480.743 322.372 479.772 323.504C479.322 324.117 478.043 324.376 475.794 324.376C473.97 324.376 472.478 324.588 472.478 324.895C472.478 325.249 472.123 325.461 471.673 325.461C471.176 325.461 469.992 325.956 468.974 326.569C465.256 328.738 460.093 328.761 460.093 326.616C460.093 325.649 459.951 325.602 458.459 326.215C457.583 326.616 456.304 327.606 455.594 328.408C454.978 329.233 453.913 329.94 453.297 329.94C452.728 329.94 452.279 330.199 452.279 330.459C452.279 330.765 451.544 331.072 450.645 331.072C449.745 331.072 448.395 331.567 447.59 332.133C445.861 333.5 445.648 333.547 444.582 332.439C443.967 331.826 443.446 331.732 442.688 332.133C442.096 332.486 440.722 332.698 439.586 332.698C437.525 332.698 433.144 334.561 433.144 335.433C433.144 336.046 429.663 336.541 423.601 336.848C420.641 337.013 419.244 337.366 418.794 337.979C418.344 338.592 417.254 338.852 415.123 338.852C412.708 338.852 411.761 339.111 410.624 340.172C409.771 340.95 408.54 341.61 407.83 341.704L406.456 341.964L407.877 342.718C408.706 343.19 411.24 343.543 414.058 343.638C424.477 343.897 431.179 344.439 432.647 345.005C433.76 345.453 434.471 345.453 435.347 345.005C436.223 344.51 436.791 344.604 437.904 345.311C439.017 346.019 439.68 346.113 440.864 345.665C441.717 345.359 443.398 345.17 444.63 345.311C445.845 345.404 449.346 345.75 452.42 346.054L452.539 346.066C455.57 346.372 461.396 346.938 465.469 347.292C470.489 347.74 472.881 348.235 473.189 348.753C473.544 349.343 474.396 349.461 476.599 349.201C478.351 348.942 480.53 349.107 482.022 349.508C483.395 349.909 485.029 350.121 485.645 350.074C486.261 350.003 487.895 350.38 489.221 350.828C490.547 351.3 492.962 351.7 494.644 351.7C496.538 351.7 497.793 351.983 498.267 352.502C498.669 352.973 499.498 353.374 500.161 353.374C500.872 353.374 502.269 353.987 503.335 354.694C503.501 354.813 503.745 354.942 504.007 355.081C504.527 355.356 505.119 355.67 505.324 356.015C505.734 356.848 505.496 358.429 505.295 359.761C505.207 360.35 505.125 360.891 505.111 361.296C505.04 364.172 505.253 367.779 505.608 369.264C505.963 370.82 506.413 374.074 506.721 376.525C507.526 383.952 508.497 389.374 509.018 389.893C509.302 390.199 509.515 392.274 509.515 394.514C509.515 396.966 509.728 398.592 510.131 398.592C510.486 398.592 510.676 399.818 510.628 401.539C510.533 405.052 511.386 411.677 512.262 413.798C512.617 414.694 512.925 416.604 512.925 418.113C512.925 419.622 513.138 421.036 513.446 421.201C513.754 421.413 514.015 423.7 514.015 426.246C514.015 430.066 514.18 430.985 514.843 430.985C516.17 430.985 515.909 434.097 514.441 436.172C511.268 440.628 509.657 441.406 506.531 440.132C503.832 439.072 495.354 438.624 491.684 439.378C490.405 439.637 487.752 439.897 485.763 439.944C483.845 439.944 481.998 440.18 481.69 440.345C481.382 440.58 480.033 440.745 478.564 440.745C477.191 440.793 475.367 441.24 474.539 441.806C473.639 442.372 471.91 442.726 470.11 442.726C468.476 442.773 466.795 443.009 466.274 443.221C465.777 443.457 464.451 444.07 463.314 444.635C462.106 445.154 461.183 445.861 461.183 446.121C461.183 447.441 458.08 449.28 454.86 449.893C452.918 450.294 449.958 450.977 448.229 451.472C446.548 451.92 444.156 452.415 442.972 452.58C441.693 452.745 440.272 453.358 439.562 454.113C438.923 454.773 437.478 455.739 436.46 456.235C434.613 457.06 433.286 457.248 424.359 458.073C422.512 458.215 420.736 458.734 420.428 459.087C420.12 459.488 418.865 460.101 417.728 460.502C416.544 460.855 414.815 461.916 413.844 462.836C412.826 463.708 411.618 464.415 411.145 464.415C410.671 464.415 409.961 464.769 409.558 465.123C409.132 465.618 408.635 465.618 407.664 465.123C406.953 464.816 405.367 464.321 404.135 464.156C402.028 463.849 401.767 463.991 398.665 466.844C396.321 469.083 394.639 470.168 392.295 470.922C390.59 471.441 388.293 472.455 387.227 473.209C386.161 473.916 384.528 474.482 383.462 474.482C382.396 474.482 380.668 475.095 379.389 476.014C376.997 477.641 373.919 478.914 372.237 478.914C370.816 478.914 371.053 480.588 372.545 481.107C373.208 481.366 375.813 481.72 378.252 481.932C380.715 482.097 382.893 482.498 383.059 482.804C383.272 483.111 385.427 483.252 388.174 483.111C390.779 482.993 393.171 482.899 393.479 482.899C402.596 483.158 409.132 483.818 409.345 484.384C409.629 485.233 412.613 485.327 413.11 484.525C413.584 483.818 419.765 483.818 420.475 484.525C420.783 484.785 422.725 485.138 424.809 485.233C426.893 485.303 428.574 485.515 428.574 485.751C428.574 485.987 429.64 486.199 430.966 486.199C432.292 486.199 436.578 486.246 440.509 486.341C446.832 486.458 447.755 486.6 448.419 487.567C449.176 488.58 449.437 488.627 451.947 487.92C455.783 486.859 464.45 486.506 465.942 487.307C466.653 487.708 467.79 487.897 468.5 487.802C469.258 487.708 470.134 487.967 470.536 488.415C471.105 489.146 471.507 489.123 473.449 488.014C475.841 486.694 477.475 486.435 477.475 487.307C477.475 487.614 478.304 487.873 479.417 487.873C480.53 487.873 481.903 488.179 482.519 488.58C483.3 489.075 483.892 489.075 485.029 488.415C486.308 487.755 486.711 487.779 488.345 488.58C489.718 489.24 491.968 489.453 498.598 489.453C503.24 489.5 507.739 489.712 508.544 490.066C509.468 490.419 510.557 490.419 511.362 490.16C512.12 489.853 512.996 489.853 513.446 490.16C513.944 490.419 515.317 490.655 516.548 490.561C519.343 490.466 523.44 491.126 525.121 491.881C526.044 492.4 526.542 492.4 527.063 491.881C527.915 491.056 529.904 491.056 530.733 491.881C531.278 492.4 531.894 492.4 533.433 491.834C534.877 491.291 535.825 491.291 536.961 491.692C537.767 491.999 540.727 492.447 543.497 492.612C546.244 492.73 550.436 492.965 552.78 493.13C556.759 493.39 566.562 494.403 575.798 495.629C577.196 495.84 579.595 496.135 582.148 496.448C583.877 496.661 585.677 496.882 587.283 497.091C591.356 497.539 596.258 498.27 598.247 498.718C600.284 499.142 603.055 499.543 604.476 499.543C605.896 499.567 607.27 499.802 607.578 500.062C608.122 500.58 612.835 501.24 622.734 502.207C624.889 502.419 627.02 502.82 627.493 503.174C627.943 503.433 629.577 503.881 631.164 504.093C636.824 504.871 640.044 505.673 640.4 506.238C640.66 506.592 642.034 506.851 643.525 506.804C646.983 506.757 650.677 507.276 651.127 507.983C651.293 508.242 652.879 508.502 654.608 508.502C657.663 508.525 657.805 508.572 658.326 510.293C658.586 511.26 658.894 514.773 658.894 518.168C658.942 523.849 659.249 526.301 660.67 531.936C660.931 533.091 661.191 534.977 661.191 536.25C661.191 537.523 661.57 539.551 662.068 540.824C662.849 542.757 662.896 543.7 662.233 546.812C661.665 549.759 661.712 552.494 662.233 560.321C662.636 565.72 663.157 571.401 663.512 573.028ZM358.1 283.52H358.052C358.1 283.567 358.147 283.567 358.147 283.567L358.1 283.52Z" fill="black"/>
</g>
<defs>
<clipPath id="clip0_2991_17281">
<rect width="767" height="767" rx="175.271" fill="white"/>
</clipPath>
</defs>
</svg>
